<mxfile host="app.diagrams.net" modified="2024-03-20T10:00:56.891Z" agent="Mozilla/5.0 (Windows NT 10.0; Win64; x64; rv:124.0) Gecko/20100101 Firefox/124.0" etag="qq1YvkliblOQGiwuFKPE" version="24.0.7" type="device">
  <diagram name="Page-1" id="08qeslw6UOOf-ZyFpn8J">
    <mxGraphModel dx="2762" dy="2156" grid="1" gridSize="10" guides="1" tooltips="1" connect="1" arrows="1" fold="1" page="1" pageScale="1" pageWidth="850" pageHeight="1100" math="0" shadow="0">
      <root>
        <mxCell id="0" />
        <mxCell id="1" parent="0" />
        <mxCell id="lg4uF6hQVyjMkgcxpOXD-1" value="book_types" style="rounded=0;whiteSpace=wrap;html=1;" vertex="1" parent="1">
          <mxGeometry y="150" width="100" height="60" as="geometry" />
        </mxCell>
        <mxCell id="lg4uF6hQVyjMkgcxpOXD-2" value="&lt;u&gt;book_type_id&lt;/u&gt;" style="ellipse;whiteSpace=wrap;html=1;" vertex="1" parent="1">
          <mxGeometry x="-150" y="60" width="110" height="50" as="geometry" />
        </mxCell>
        <mxCell id="lg4uF6hQVyjMkgcxpOXD-3" value="type_name" style="ellipse;whiteSpace=wrap;html=1;" vertex="1" parent="1">
          <mxGeometry x="-170" y="155" width="110" height="50" as="geometry" />
        </mxCell>
        <mxCell id="lg4uF6hQVyjMkgcxpOXD-6" value="&lt;div&gt;books&lt;/div&gt;" style="rounded=0;whiteSpace=wrap;html=1;" vertex="1" parent="1">
          <mxGeometry x="440" y="150" width="90" height="60" as="geometry" />
        </mxCell>
        <mxCell id="lg4uF6hQVyjMkgcxpOXD-7" value="&lt;u&gt;book_id&lt;/u&gt;" style="ellipse;whiteSpace=wrap;html=1;" vertex="1" parent="1">
          <mxGeometry x="220" y="-150" width="110" height="50" as="geometry" />
        </mxCell>
        <mxCell id="lg4uF6hQVyjMkgcxpOXD-8" value="author" style="ellipse;whiteSpace=wrap;html=1;" vertex="1" parent="1">
          <mxGeometry x="490" y="-130" width="110" height="50" as="geometry" />
        </mxCell>
        <mxCell id="lg4uF6hQVyjMkgcxpOXD-9" value="publication_date" style="ellipse;whiteSpace=wrap;html=1;" vertex="1" parent="1">
          <mxGeometry x="160" y="-80" width="110" height="50" as="geometry" />
        </mxCell>
        <mxCell id="lg4uF6hQVyjMkgcxpOXD-10" value="book_type_id" style="ellipse;whiteSpace=wrap;html=1;" vertex="1" parent="1">
          <mxGeometry x="540" y="-50" width="110" height="50" as="geometry" />
        </mxCell>
        <mxCell id="lg4uF6hQVyjMkgcxpOXD-11" value="number_of_pages" style="ellipse;whiteSpace=wrap;html=1;" vertex="1" parent="1">
          <mxGeometry x="680" y="-50" width="110" height="50" as="geometry" />
        </mxCell>
        <mxCell id="lg4uF6hQVyjMkgcxpOXD-12" value="title" style="ellipse;whiteSpace=wrap;html=1;" vertex="1" parent="1">
          <mxGeometry x="350" y="-130" width="110" height="50" as="geometry" />
        </mxCell>
        <mxCell id="lg4uF6hQVyjMkgcxpOXD-13" value="number_of_copies" style="ellipse;whiteSpace=wrap;html=1;" vertex="1" parent="1">
          <mxGeometry x="180" y="240" width="110" height="50" as="geometry" />
        </mxCell>
        <mxCell id="lg4uF6hQVyjMkgcxpOXD-14" value="import_date" style="ellipse;whiteSpace=wrap;html=1;" vertex="1" parent="1">
          <mxGeometry x="260" y="310" width="110" height="50" as="geometry" />
        </mxCell>
        <mxCell id="lg4uF6hQVyjMkgcxpOXD-15" value="shelf_location" style="ellipse;whiteSpace=wrap;html=1;" vertex="1" parent="1">
          <mxGeometry x="390" y="330" width="110" height="50" as="geometry" />
        </mxCell>
        <mxCell id="lg4uF6hQVyjMkgcxpOXD-16" value="price" style="ellipse;whiteSpace=wrap;html=1;" vertex="1" parent="1">
          <mxGeometry x="120" y="20" width="110" height="50" as="geometry" />
        </mxCell>
        <mxCell id="lg4uF6hQVyjMkgcxpOXD-23" value="" style="endArrow=none;html=1;rounded=0;exitX=1;exitY=0.5;exitDx=0;exitDy=0;entryX=0;entryY=0.5;entryDx=0;entryDy=0;" edge="1" parent="1" source="lg4uF6hQVyjMkgcxpOXD-3" target="lg4uF6hQVyjMkgcxpOXD-1">
          <mxGeometry relative="1" as="geometry">
            <mxPoint x="250" y="380" as="sourcePoint" />
            <mxPoint x="410" y="380" as="targetPoint" />
          </mxGeometry>
        </mxCell>
        <mxCell id="lg4uF6hQVyjMkgcxpOXD-24" value="" style="endArrow=none;html=1;rounded=0;exitX=1;exitY=1;exitDx=0;exitDy=0;entryX=0;entryY=0;entryDx=0;entryDy=0;" edge="1" parent="1" source="lg4uF6hQVyjMkgcxpOXD-2" target="lg4uF6hQVyjMkgcxpOXD-1">
          <mxGeometry relative="1" as="geometry">
            <mxPoint x="250" y="380" as="sourcePoint" />
            <mxPoint x="410" y="380" as="targetPoint" />
          </mxGeometry>
        </mxCell>
        <mxCell id="lg4uF6hQVyjMkgcxpOXD-26" value="" style="endArrow=none;html=1;rounded=0;exitX=0.564;exitY=1;exitDx=0;exitDy=0;exitPerimeter=0;entryX=0.5;entryY=0;entryDx=0;entryDy=0;" edge="1" parent="1" source="lg4uF6hQVyjMkgcxpOXD-7" target="lg4uF6hQVyjMkgcxpOXD-6">
          <mxGeometry relative="1" as="geometry">
            <mxPoint x="450" y="380" as="sourcePoint" />
            <mxPoint x="480" y="140" as="targetPoint" />
          </mxGeometry>
        </mxCell>
        <mxCell id="lg4uF6hQVyjMkgcxpOXD-28" value="" style="endArrow=none;html=1;rounded=0;entryX=0.5;entryY=0;entryDx=0;entryDy=0;" edge="1" parent="1" source="lg4uF6hQVyjMkgcxpOXD-12" target="lg4uF6hQVyjMkgcxpOXD-6">
          <mxGeometry relative="1" as="geometry">
            <mxPoint x="450" y="380" as="sourcePoint" />
            <mxPoint x="610" y="380" as="targetPoint" />
          </mxGeometry>
        </mxCell>
        <mxCell id="lg4uF6hQVyjMkgcxpOXD-29" value="" style="endArrow=none;html=1;rounded=0;entryX=0;entryY=1;entryDx=0;entryDy=0;exitX=0.75;exitY=0;exitDx=0;exitDy=0;" edge="1" parent="1" source="lg4uF6hQVyjMkgcxpOXD-6" target="lg4uF6hQVyjMkgcxpOXD-8">
          <mxGeometry relative="1" as="geometry">
            <mxPoint x="450" y="380" as="sourcePoint" />
            <mxPoint x="610" y="380" as="targetPoint" />
          </mxGeometry>
        </mxCell>
        <mxCell id="lg4uF6hQVyjMkgcxpOXD-30" value="" style="endArrow=none;html=1;rounded=0;" edge="1" parent="1" source="lg4uF6hQVyjMkgcxpOXD-6" target="lg4uF6hQVyjMkgcxpOXD-9">
          <mxGeometry relative="1" as="geometry">
            <mxPoint x="450" y="380" as="sourcePoint" />
            <mxPoint x="610" y="380" as="targetPoint" />
          </mxGeometry>
        </mxCell>
        <mxCell id="lg4uF6hQVyjMkgcxpOXD-31" value="" style="endArrow=none;html=1;rounded=0;entryX=0;entryY=0.5;entryDx=0;entryDy=0;exitX=1;exitY=0.25;exitDx=0;exitDy=0;" edge="1" parent="1" source="lg4uF6hQVyjMkgcxpOXD-6" target="lg4uF6hQVyjMkgcxpOXD-10">
          <mxGeometry relative="1" as="geometry">
            <mxPoint x="450" y="380" as="sourcePoint" />
            <mxPoint x="610" y="380" as="targetPoint" />
          </mxGeometry>
        </mxCell>
        <mxCell id="lg4uF6hQVyjMkgcxpOXD-32" value="" style="endArrow=none;html=1;rounded=0;entryX=0;entryY=0.5;entryDx=0;entryDy=0;exitX=1;exitY=0.5;exitDx=0;exitDy=0;" edge="1" parent="1" source="lg4uF6hQVyjMkgcxpOXD-6" target="lg4uF6hQVyjMkgcxpOXD-11">
          <mxGeometry relative="1" as="geometry">
            <mxPoint x="450" y="380" as="sourcePoint" />
            <mxPoint x="610" y="380" as="targetPoint" />
          </mxGeometry>
        </mxCell>
        <mxCell id="lg4uF6hQVyjMkgcxpOXD-33" value="" style="endArrow=none;html=1;rounded=0;exitX=0;exitY=1;exitDx=0;exitDy=0;" edge="1" parent="1" source="lg4uF6hQVyjMkgcxpOXD-6" target="lg4uF6hQVyjMkgcxpOXD-13">
          <mxGeometry relative="1" as="geometry">
            <mxPoint x="450" y="380" as="sourcePoint" />
            <mxPoint x="610" y="380" as="targetPoint" />
          </mxGeometry>
        </mxCell>
        <mxCell id="lg4uF6hQVyjMkgcxpOXD-35" value="" style="endArrow=none;html=1;rounded=0;entryX=0.5;entryY=0;entryDx=0;entryDy=0;exitX=0.167;exitY=0.967;exitDx=0;exitDy=0;exitPerimeter=0;" edge="1" parent="1" source="lg4uF6hQVyjMkgcxpOXD-6" target="lg4uF6hQVyjMkgcxpOXD-14">
          <mxGeometry relative="1" as="geometry">
            <mxPoint x="590" y="290" as="sourcePoint" />
            <mxPoint x="750" y="290" as="targetPoint" />
          </mxGeometry>
        </mxCell>
        <mxCell id="lg4uF6hQVyjMkgcxpOXD-36" value="" style="endArrow=none;html=1;rounded=0;entryX=0.5;entryY=0;entryDx=0;entryDy=0;exitX=0.611;exitY=1.083;exitDx=0;exitDy=0;exitPerimeter=0;" edge="1" parent="1" source="lg4uF6hQVyjMkgcxpOXD-6" target="lg4uF6hQVyjMkgcxpOXD-15">
          <mxGeometry relative="1" as="geometry">
            <mxPoint x="450" y="380" as="sourcePoint" />
            <mxPoint x="610" y="380" as="targetPoint" />
          </mxGeometry>
        </mxCell>
        <mxCell id="lg4uF6hQVyjMkgcxpOXD-37" value="" style="endArrow=none;html=1;rounded=0;exitX=0;exitY=0;exitDx=0;exitDy=0;" edge="1" parent="1" source="lg4uF6hQVyjMkgcxpOXD-6" target="lg4uF6hQVyjMkgcxpOXD-16">
          <mxGeometry relative="1" as="geometry">
            <mxPoint x="450" y="380" as="sourcePoint" />
            <mxPoint x="610" y="380" as="targetPoint" />
          </mxGeometry>
        </mxCell>
        <mxCell id="lg4uF6hQVyjMkgcxpOXD-38" value="transactions" style="rounded=0;whiteSpace=wrap;html=1;" vertex="1" parent="1">
          <mxGeometry x="110" y="510" width="100" height="60" as="geometry" />
        </mxCell>
        <mxCell id="lg4uF6hQVyjMkgcxpOXD-39" value="&lt;u&gt;transaction_id&lt;/u&gt;" style="ellipse;whiteSpace=wrap;html=1;" vertex="1" parent="1">
          <mxGeometry x="80" y="720" width="110" height="50" as="geometry" />
        </mxCell>
        <mxCell id="lg4uF6hQVyjMkgcxpOXD-41" value="checkout_date" style="ellipse;whiteSpace=wrap;html=1;" vertex="1" parent="1">
          <mxGeometry x="160" y="650" width="110" height="50" as="geometry" />
        </mxCell>
        <mxCell id="lg4uF6hQVyjMkgcxpOXD-42" value="return_date" style="ellipse;whiteSpace=wrap;html=1;" vertex="1" parent="1">
          <mxGeometry y="640" width="110" height="50" as="geometry" />
        </mxCell>
        <mxCell id="lg4uF6hQVyjMkgcxpOXD-43" value="card_number" style="ellipse;whiteSpace=wrap;html=1;" vertex="1" parent="1">
          <mxGeometry x="280" y="670" width="110" height="50" as="geometry" />
        </mxCell>
        <mxCell id="lg4uF6hQVyjMkgcxpOXD-44" value="" style="endArrow=none;html=1;rounded=0;entryX=0.75;entryY=1;entryDx=0;entryDy=0;" edge="1" parent="1" source="lg4uF6hQVyjMkgcxpOXD-43" target="lg4uF6hQVyjMkgcxpOXD-38">
          <mxGeometry relative="1" as="geometry">
            <mxPoint x="410" y="440" as="sourcePoint" />
            <mxPoint x="570" y="440" as="targetPoint" />
          </mxGeometry>
        </mxCell>
        <mxCell id="lg4uF6hQVyjMkgcxpOXD-45" value="" style="endArrow=none;html=1;rounded=0;entryX=0.25;entryY=1;entryDx=0;entryDy=0;" edge="1" parent="1" source="lg4uF6hQVyjMkgcxpOXD-39" target="lg4uF6hQVyjMkgcxpOXD-38">
          <mxGeometry relative="1" as="geometry">
            <mxPoint x="410" y="440" as="sourcePoint" />
            <mxPoint x="570" y="440" as="targetPoint" />
          </mxGeometry>
        </mxCell>
        <mxCell id="lg4uF6hQVyjMkgcxpOXD-46" value="" style="endArrow=none;html=1;rounded=0;exitX=0.5;exitY=0;exitDx=0;exitDy=0;entryX=0.5;entryY=1;entryDx=0;entryDy=0;" edge="1" parent="1" source="lg4uF6hQVyjMkgcxpOXD-41" target="lg4uF6hQVyjMkgcxpOXD-38">
          <mxGeometry relative="1" as="geometry">
            <mxPoint x="410" y="440" as="sourcePoint" />
            <mxPoint x="570" y="440" as="targetPoint" />
          </mxGeometry>
        </mxCell>
        <mxCell id="lg4uF6hQVyjMkgcxpOXD-47" value="" style="endArrow=none;html=1;rounded=0;exitX=1;exitY=0.5;exitDx=0;exitDy=0;entryX=0.1;entryY=1;entryDx=0;entryDy=0;entryPerimeter=0;" edge="1" parent="1" source="lg4uF6hQVyjMkgcxpOXD-42" target="lg4uF6hQVyjMkgcxpOXD-38">
          <mxGeometry relative="1" as="geometry">
            <mxPoint x="410" y="440" as="sourcePoint" />
            <mxPoint x="570" y="440" as="targetPoint" />
          </mxGeometry>
        </mxCell>
        <mxCell id="lg4uF6hQVyjMkgcxpOXD-48" value="students" style="rounded=0;whiteSpace=wrap;html=1;" vertex="1" parent="1">
          <mxGeometry x="-400" y="410" width="100" height="60" as="geometry" />
        </mxCell>
        <mxCell id="lg4uF6hQVyjMkgcxpOXD-49" value="&lt;u&gt;transaction_id&lt;/u&gt;" style="ellipse;whiteSpace=wrap;html=1;" vertex="1" parent="1">
          <mxGeometry x="-370" y="610" width="110" height="50" as="geometry" />
        </mxCell>
        <mxCell id="lg4uF6hQVyjMkgcxpOXD-50" value="card_number" style="ellipse;whiteSpace=wrap;html=1;" vertex="1" parent="1">
          <mxGeometry x="-500" y="600" width="110" height="50" as="geometry" />
        </mxCell>
        <mxCell id="lg4uF6hQVyjMkgcxpOXD-51" value="card_number" style="ellipse;whiteSpace=wrap;html=1;" vertex="1" parent="1">
          <mxGeometry x="-250" y="570" width="110" height="50" as="geometry" />
        </mxCell>
        <mxCell id="lg4uF6hQVyjMkgcxpOXD-52" value="" style="endArrow=none;html=1;rounded=0;exitX=0.5;exitY=0;exitDx=0;exitDy=0;entryX=0.75;entryY=1;entryDx=0;entryDy=0;" edge="1" parent="1" source="lg4uF6hQVyjMkgcxpOXD-49" target="lg4uF6hQVyjMkgcxpOXD-48">
          <mxGeometry relative="1" as="geometry">
            <mxPoint x="-560" y="360" as="sourcePoint" />
            <mxPoint x="-420" y="420" as="targetPoint" />
          </mxGeometry>
        </mxCell>
        <mxCell id="lg4uF6hQVyjMkgcxpOXD-53" value="" style="endArrow=none;html=1;rounded=0;exitX=0.5;exitY=0;exitDx=0;exitDy=0;entryX=0.5;entryY=1;entryDx=0;entryDy=0;" edge="1" parent="1" source="lg4uF6hQVyjMkgcxpOXD-50" target="lg4uF6hQVyjMkgcxpOXD-48">
          <mxGeometry relative="1" as="geometry">
            <mxPoint x="-560" y="360" as="sourcePoint" />
            <mxPoint x="-400" y="360" as="targetPoint" />
          </mxGeometry>
        </mxCell>
        <mxCell id="lg4uF6hQVyjMkgcxpOXD-54" value="" style="endArrow=none;html=1;rounded=0;exitX=0.5;exitY=0;exitDx=0;exitDy=0;" edge="1" parent="1" source="lg4uF6hQVyjMkgcxpOXD-51" target="lg4uF6hQVyjMkgcxpOXD-48">
          <mxGeometry relative="1" as="geometry">
            <mxPoint x="-235" y="530" as="sourcePoint" />
            <mxPoint x="-400" y="360" as="targetPoint" />
          </mxGeometry>
        </mxCell>
        <mxCell id="lg4uF6hQVyjMkgcxpOXD-58" value="&lt;div&gt;student_cards&lt;/div&gt;" style="rounded=0;whiteSpace=wrap;html=1;" vertex="1" parent="1">
          <mxGeometry x="-370" y="55" width="100" height="60" as="geometry" />
        </mxCell>
        <mxCell id="lg4uF6hQVyjMkgcxpOXD-59" value="&lt;u&gt;card_number&lt;/u&gt;" style="ellipse;whiteSpace=wrap;html=1;" vertex="1" parent="1">
          <mxGeometry x="-390" y="-60" width="110" height="50" as="geometry" />
        </mxCell>
        <mxCell id="lg4uF6hQVyjMkgcxpOXD-60" value="expiration_date" style="ellipse;whiteSpace=wrap;html=1;" vertex="1" parent="1">
          <mxGeometry x="-560" y="55" width="110" height="50" as="geometry" />
        </mxCell>
        <mxCell id="lg4uF6hQVyjMkgcxpOXD-61" value="major" style="ellipse;whiteSpace=wrap;html=1;" vertex="1" parent="1">
          <mxGeometry x="-500" y="130" width="110" height="50" as="geometry" />
        </mxCell>
        <mxCell id="lg4uF6hQVyjMkgcxpOXD-62" value="student_name" style="ellipse;whiteSpace=wrap;html=1;" vertex="1" parent="1">
          <mxGeometry x="-520" y="-30" width="110" height="50" as="geometry" />
        </mxCell>
        <mxCell id="lg4uF6hQVyjMkgcxpOXD-63" value="" style="endArrow=none;html=1;rounded=0;entryX=0.6;entryY=1.02;entryDx=0;entryDy=0;entryPerimeter=0;exitX=0.38;exitY=0.033;exitDx=0;exitDy=0;exitPerimeter=0;" edge="1" parent="1" source="lg4uF6hQVyjMkgcxpOXD-58" target="lg4uF6hQVyjMkgcxpOXD-59">
          <mxGeometry relative="1" as="geometry">
            <mxPoint x="230" y="120" as="sourcePoint" />
            <mxPoint x="390" y="120" as="targetPoint" />
          </mxGeometry>
        </mxCell>
        <mxCell id="lg4uF6hQVyjMkgcxpOXD-64" value="" style="endArrow=none;html=1;rounded=0;entryX=0.691;entryY=1;entryDx=0;entryDy=0;entryPerimeter=0;exitX=0;exitY=0;exitDx=0;exitDy=0;" edge="1" parent="1" source="lg4uF6hQVyjMkgcxpOXD-58" target="lg4uF6hQVyjMkgcxpOXD-62">
          <mxGeometry relative="1" as="geometry">
            <mxPoint x="230" y="120" as="sourcePoint" />
            <mxPoint x="390" y="120" as="targetPoint" />
          </mxGeometry>
        </mxCell>
        <mxCell id="lg4uF6hQVyjMkgcxpOXD-65" value="" style="endArrow=none;html=1;rounded=0;entryX=1;entryY=0.5;entryDx=0;entryDy=0;exitX=0;exitY=0.5;exitDx=0;exitDy=0;" edge="1" parent="1" source="lg4uF6hQVyjMkgcxpOXD-58" target="lg4uF6hQVyjMkgcxpOXD-60">
          <mxGeometry relative="1" as="geometry">
            <mxPoint x="230" y="120" as="sourcePoint" />
            <mxPoint x="-440" y="85" as="targetPoint" />
          </mxGeometry>
        </mxCell>
        <mxCell id="lg4uF6hQVyjMkgcxpOXD-66" value="" style="endArrow=none;html=1;rounded=0;entryX=1;entryY=0.5;entryDx=0;entryDy=0;exitX=0;exitY=1;exitDx=0;exitDy=0;" edge="1" parent="1" source="lg4uF6hQVyjMkgcxpOXD-58" target="lg4uF6hQVyjMkgcxpOXD-61">
          <mxGeometry relative="1" as="geometry">
            <mxPoint x="230" y="120" as="sourcePoint" />
            <mxPoint x="390" y="120" as="targetPoint" />
          </mxGeometry>
        </mxCell>
        <mxCell id="lg4uF6hQVyjMkgcxpOXD-73" value="quantities" style="ellipse;whiteSpace=wrap;html=1;" vertex="1" parent="1">
          <mxGeometry x="900" y="420" width="110" height="50" as="geometry" />
        </mxCell>
        <mxCell id="lg4uF6hQVyjMkgcxpOXD-74" value="borrowed_day" style="ellipse;whiteSpace=wrap;html=1;" vertex="1" parent="1">
          <mxGeometry x="900" y="560" width="110" height="50" as="geometry" />
        </mxCell>
        <mxCell id="lg4uF6hQVyjMkgcxpOXD-75" value="" style="endArrow=none;html=1;rounded=0;exitX=0.964;exitY=0;exitDx=0;exitDy=0;entryX=0;entryY=0.5;entryDx=0;entryDy=0;exitPerimeter=0;" edge="1" parent="1" source="lg4uF6hQVyjMkgcxpOXD-102" target="lg4uF6hQVyjMkgcxpOXD-73">
          <mxGeometry relative="1" as="geometry">
            <mxPoint x="845.8200000000002" y="503.3399999999999" as="sourcePoint" />
            <mxPoint x="730" y="360" as="targetPoint" />
          </mxGeometry>
        </mxCell>
        <mxCell id="lg4uF6hQVyjMkgcxpOXD-76" value="" style="endArrow=none;html=1;rounded=0;entryX=0;entryY=0.5;entryDx=0;entryDy=0;exitX=1;exitY=1;exitDx=0;exitDy=0;" edge="1" parent="1" target="lg4uF6hQVyjMkgcxpOXD-74">
          <mxGeometry relative="1" as="geometry">
            <mxPoint x="802.5" y="525" as="sourcePoint" />
            <mxPoint x="730" y="360" as="targetPoint" />
          </mxGeometry>
        </mxCell>
        <mxCell id="lg4uF6hQVyjMkgcxpOXD-78" value="belong to" style="shape=rhombus;perimeter=rhombusPerimeter;whiteSpace=wrap;html=1;align=center;" vertex="1" parent="1">
          <mxGeometry x="190" y="150" width="120" height="60" as="geometry" />
        </mxCell>
        <mxCell id="lg4uF6hQVyjMkgcxpOXD-79" value="" style="endArrow=none;html=1;rounded=0;entryX=0;entryY=0.5;entryDx=0;entryDy=0;exitX=1;exitY=0.5;exitDx=0;exitDy=0;" edge="1" parent="1" source="lg4uF6hQVyjMkgcxpOXD-78" target="lg4uF6hQVyjMkgcxpOXD-6">
          <mxGeometry relative="1" as="geometry">
            <mxPoint x="40" y="320" as="sourcePoint" />
            <mxPoint x="200" y="320" as="targetPoint" />
          </mxGeometry>
        </mxCell>
        <mxCell id="lg4uF6hQVyjMkgcxpOXD-105" value="N" style="edgeLabel;html=1;align=center;verticalAlign=middle;resizable=0;points=[];" vertex="1" connectable="0" parent="lg4uF6hQVyjMkgcxpOXD-79">
          <mxGeometry x="0.6343" y="1" relative="1" as="geometry">
            <mxPoint as="offset" />
          </mxGeometry>
        </mxCell>
        <mxCell id="lg4uF6hQVyjMkgcxpOXD-80" value="" style="endArrow=none;html=1;rounded=0;entryX=0;entryY=0.5;entryDx=0;entryDy=0;exitX=1;exitY=0.5;exitDx=0;exitDy=0;" edge="1" parent="1" source="lg4uF6hQVyjMkgcxpOXD-1" target="lg4uF6hQVyjMkgcxpOXD-78">
          <mxGeometry relative="1" as="geometry">
            <mxPoint x="90" y="270" as="sourcePoint" />
            <mxPoint x="220" y="270" as="targetPoint" />
          </mxGeometry>
        </mxCell>
        <mxCell id="lg4uF6hQVyjMkgcxpOXD-103" value="1" style="edgeLabel;html=1;align=center;verticalAlign=middle;resizable=0;points=[];" vertex="1" connectable="0" parent="lg4uF6hQVyjMkgcxpOXD-80">
          <mxGeometry x="-0.4684" relative="1" as="geometry">
            <mxPoint as="offset" />
          </mxGeometry>
        </mxCell>
        <mxCell id="lg4uF6hQVyjMkgcxpOXD-81" value="have" style="shape=rhombus;perimeter=rhombusPerimeter;whiteSpace=wrap;html=1;align=center;" vertex="1" parent="1">
          <mxGeometry x="-360" y="210" width="120" height="60" as="geometry" />
        </mxCell>
        <mxCell id="lg4uF6hQVyjMkgcxpOXD-82" value="" style="endArrow=none;html=1;rounded=0;entryX=0.5;entryY=0;entryDx=0;entryDy=0;exitX=0.5;exitY=1;exitDx=0;exitDy=0;" edge="1" parent="1" source="lg4uF6hQVyjMkgcxpOXD-81" target="lg4uF6hQVyjMkgcxpOXD-48">
          <mxGeometry relative="1" as="geometry">
            <mxPoint x="-270" y="430" as="sourcePoint" />
            <mxPoint x="130" y="290" as="targetPoint" />
          </mxGeometry>
        </mxCell>
        <mxCell id="lg4uF6hQVyjMkgcxpOXD-95" value="1" style="edgeLabel;html=1;align=center;verticalAlign=middle;resizable=0;points=[];" vertex="1" connectable="0" parent="lg4uF6hQVyjMkgcxpOXD-82">
          <mxGeometry x="0.86" relative="1" as="geometry">
            <mxPoint as="offset" />
          </mxGeometry>
        </mxCell>
        <mxCell id="lg4uF6hQVyjMkgcxpOXD-83" value="" style="endArrow=none;html=1;rounded=0;entryX=0.5;entryY=0;entryDx=0;entryDy=0;exitX=0.5;exitY=1;exitDx=0;exitDy=0;" edge="1" parent="1" target="lg4uF6hQVyjMkgcxpOXD-81" source="lg4uF6hQVyjMkgcxpOXD-58">
          <mxGeometry relative="1" as="geometry">
            <mxPoint x="-210" y="290" as="sourcePoint" />
            <mxPoint x="-90" y="380" as="targetPoint" />
          </mxGeometry>
        </mxCell>
        <mxCell id="lg4uF6hQVyjMkgcxpOXD-93" value="1" style="edgeLabel;html=1;align=center;verticalAlign=middle;resizable=0;points=[];" vertex="1" connectable="0" parent="lg4uF6hQVyjMkgcxpOXD-83">
          <mxGeometry x="-0.6944" y="-2" relative="1" as="geometry">
            <mxPoint as="offset" />
          </mxGeometry>
        </mxCell>
        <mxCell id="lg4uF6hQVyjMkgcxpOXD-84" value="borrow" style="shape=rhombus;perimeter=rhombusPerimeter;whiteSpace=wrap;html=1;align=center;" vertex="1" parent="1">
          <mxGeometry x="-150" y="460" width="120" height="60" as="geometry" />
        </mxCell>
        <mxCell id="lg4uF6hQVyjMkgcxpOXD-85" value="" style="endArrow=none;html=1;rounded=0;entryX=0;entryY=0.5;entryDx=0;entryDy=0;exitX=1;exitY=0.5;exitDx=0;exitDy=0;" edge="1" parent="1" source="lg4uF6hQVyjMkgcxpOXD-84" target="lg4uF6hQVyjMkgcxpOXD-38">
          <mxGeometry relative="1" as="geometry">
            <mxPoint x="-160" y="525" as="sourcePoint" />
            <mxPoint x="240" y="385" as="targetPoint" />
          </mxGeometry>
        </mxCell>
        <mxCell id="lg4uF6hQVyjMkgcxpOXD-97" value="N" style="edgeLabel;html=1;align=center;verticalAlign=middle;resizable=0;points=[];" vertex="1" connectable="0" parent="lg4uF6hQVyjMkgcxpOXD-85">
          <mxGeometry x="0.6891" y="1" relative="1" as="geometry">
            <mxPoint as="offset" />
          </mxGeometry>
        </mxCell>
        <mxCell id="lg4uF6hQVyjMkgcxpOXD-86" value="" style="endArrow=none;html=1;rounded=0;entryX=0;entryY=0.5;entryDx=0;entryDy=0;exitX=1;exitY=0.5;exitDx=0;exitDy=0;" edge="1" parent="1" target="lg4uF6hQVyjMkgcxpOXD-84" source="lg4uF6hQVyjMkgcxpOXD-48">
          <mxGeometry relative="1" as="geometry">
            <mxPoint x="-100" y="385" as="sourcePoint" />
            <mxPoint x="20" y="475" as="targetPoint" />
          </mxGeometry>
        </mxCell>
        <mxCell id="lg4uF6hQVyjMkgcxpOXD-96" value="1" style="edgeLabel;html=1;align=center;verticalAlign=middle;resizable=0;points=[];" vertex="1" connectable="0" parent="lg4uF6hQVyjMkgcxpOXD-86">
          <mxGeometry x="-0.782" relative="1" as="geometry">
            <mxPoint as="offset" />
          </mxGeometry>
        </mxCell>
        <mxCell id="lg4uF6hQVyjMkgcxpOXD-87" value="have" style="shape=rhombus;perimeter=rhombusPerimeter;whiteSpace=wrap;html=1;align=center;" vertex="1" parent="1">
          <mxGeometry x="420" y="510" width="120" height="60" as="geometry" />
        </mxCell>
        <mxCell id="lg4uF6hQVyjMkgcxpOXD-88" value="" style="endArrow=none;html=1;rounded=0;exitX=1;exitY=0.5;exitDx=0;exitDy=0;entryX=0.012;entryY=0.426;entryDx=0;entryDy=0;entryPerimeter=0;" edge="1" parent="1" source="lg4uF6hQVyjMkgcxpOXD-87" target="lg4uF6hQVyjMkgcxpOXD-102">
          <mxGeometry relative="1" as="geometry">
            <mxPoint x="105" y="580" as="sourcePoint" />
            <mxPoint x="689.1129032258068" y="519.1935483870966" as="targetPoint" />
          </mxGeometry>
        </mxCell>
        <mxCell id="lg4uF6hQVyjMkgcxpOXD-99" value="N" style="edgeLabel;html=1;align=center;verticalAlign=middle;resizable=0;points=[];" vertex="1" connectable="0" parent="lg4uF6hQVyjMkgcxpOXD-88">
          <mxGeometry x="0.407" y="1" relative="1" as="geometry">
            <mxPoint as="offset" />
          </mxGeometry>
        </mxCell>
        <mxCell id="lg4uF6hQVyjMkgcxpOXD-89" value="" style="endArrow=none;html=1;rounded=0;entryX=0;entryY=0.5;entryDx=0;entryDy=0;exitX=1;exitY=0.5;exitDx=0;exitDy=0;" edge="1" parent="1" target="lg4uF6hQVyjMkgcxpOXD-87" source="lg4uF6hQVyjMkgcxpOXD-38">
          <mxGeometry relative="1" as="geometry">
            <mxPoint x="165" y="440" as="sourcePoint" />
            <mxPoint x="285" y="530" as="targetPoint" />
          </mxGeometry>
        </mxCell>
        <mxCell id="lg4uF6hQVyjMkgcxpOXD-98" value="1" style="edgeLabel;html=1;align=center;verticalAlign=middle;resizable=0;points=[];" vertex="1" connectable="0" parent="lg4uF6hQVyjMkgcxpOXD-89">
          <mxGeometry x="-0.7668" y="1" relative="1" as="geometry">
            <mxPoint as="offset" />
          </mxGeometry>
        </mxCell>
        <mxCell id="lg4uF6hQVyjMkgcxpOXD-90" value="in" style="shape=rhombus;perimeter=rhombusPerimeter;whiteSpace=wrap;html=1;align=center;" vertex="1" parent="1">
          <mxGeometry x="620" y="320" width="120" height="60" as="geometry" />
        </mxCell>
        <mxCell id="lg4uF6hQVyjMkgcxpOXD-91" value="" style="endArrow=none;html=1;rounded=0;entryX=0.5;entryY=0;entryDx=0;entryDy=0;exitX=0.5;exitY=1;exitDx=0;exitDy=0;" edge="1" parent="1" source="lg4uF6hQVyjMkgcxpOXD-90" target="lg4uF6hQVyjMkgcxpOXD-102">
          <mxGeometry relative="1" as="geometry">
            <mxPoint x="550" y="400" as="sourcePoint" />
            <mxPoint x="755" y="480" as="targetPoint" />
          </mxGeometry>
        </mxCell>
        <mxCell id="lg4uF6hQVyjMkgcxpOXD-100" value="N" style="edgeLabel;html=1;align=center;verticalAlign=middle;resizable=0;points=[];" vertex="1" connectable="0" parent="lg4uF6hQVyjMkgcxpOXD-91">
          <mxGeometry x="0.6871" relative="1" as="geometry">
            <mxPoint as="offset" />
          </mxGeometry>
        </mxCell>
        <mxCell id="lg4uF6hQVyjMkgcxpOXD-92" value="" style="endArrow=none;html=1;rounded=0;exitX=1;exitY=0.75;exitDx=0;exitDy=0;" edge="1" parent="1" target="lg4uF6hQVyjMkgcxpOXD-90" source="lg4uF6hQVyjMkgcxpOXD-6">
          <mxGeometry relative="1" as="geometry">
            <mxPoint x="610" y="260" as="sourcePoint" />
            <mxPoint x="730" y="350" as="targetPoint" />
          </mxGeometry>
        </mxCell>
        <mxCell id="lg4uF6hQVyjMkgcxpOXD-101" value="1" style="edgeLabel;html=1;align=center;verticalAlign=middle;resizable=0;points=[];" vertex="1" connectable="0" parent="lg4uF6hQVyjMkgcxpOXD-92">
          <mxGeometry x="-0.7882" y="1" relative="1" as="geometry">
            <mxPoint as="offset" />
          </mxGeometry>
        </mxCell>
        <mxCell id="lg4uF6hQVyjMkgcxpOXD-102" value="transactions_details" style="rounded=0;whiteSpace=wrap;html=1;" vertex="1" parent="1">
          <mxGeometry x="665" y="500" width="140" height="60" as="geometry" />
        </mxCell>
      </root>
    </mxGraphModel>
  </diagram>
</mxfile>
